<svg id="Layer_1" data-name="Layer 1" xmlns="http://www.w3.org/2000/svg" viewBox="0 0 512 512"><defs><style>.cls-1{fill:#fff;}.cls-2{fill:#479fd8;}</style></defs><title>Icon</title><circle class="cls-1" cx="255.92" cy="286.61" r="225.35"/><path class="cls-2" d="M338.83,82.32c0,45.49-82.36,191.42-82.36,191.42S174.1,127.81,174.1,82.32a82.37,82.37,0,0,1,164.73,0Z"/><circle class="cls-1" cx="256.47" cy="75.09" r="46.3"/><path class="cls-2" d="M283.16,300.14s-81.88,2.52-95.7,33.6c-12.86,28.94,37.13,32.81,44,66.48,5,24.34-38.73,44.17-63.36,53.29a7.69,7.69,0,0,0-.64,14.15c24.32,11.78,76.55,29.22,141.51,10.92,17-4.81,39.25-51.82,33.7-78.89-6.91-33.67-64.59-41.77-80.13-60.77-20-24.51,20.72-38.85,20.72-38.85Z"/></svg>